HIERARCHY
ROOT Hips
{
	OFFSET 0.000000 0.000000 0.000000
	CHANNELS 6 Xposition Yposition Zposition Xrotation Yrotation Zrotation
	JOINT LeftUpLeg_virtual
	{
		OFFSET 0.000000 0.000000 0.000000
		CHANNELS 3 Xrotation Yrotation Zrotation
		JOINT LeftUpLeg
		{
			OFFSET 15.427100 -6.655098 0.678600
			CHANNELS 3 Xrotation Yrotation Zrotation
			JOINT LeftLeg
			{
				OFFSET 4.081073 -39.591068 13.024000
				CHANNELS 3 Xrotation Yrotation Zrotation
				JOINT LeftFoot
				{
					OFFSET -4.081074 -37.707932 -15.979700
					CHANNELS 3 Xrotation Yrotation Zrotation
					JOINT LeftToeBase
					{
						OFFSET 5.346399 -15.068900 20.645000
						CHANNELS 3 Xrotation Yrotation Zrotation
						JOINT LeftToe_End
						{
							OFFSET 2.754700 0.931300 11.300900
							CHANNELS 3 Xrotation Yrotation Zrotation
							End Site
							{
								OFFSET 0 0 0
							}
						}
					}
				}
			}
		}
	}
	JOINT RightUpLeg_virtual
	{
		OFFSET 0.000000 0.000000 0.000000
		CHANNELS 3 Xrotation Yrotation Zrotation
		JOINT RightUpLeg
		{
			OFFSET -15.569500 -6.655098 0.678600
			CHANNELS 3 Xrotation Yrotation Zrotation
			JOINT RightLeg
			{
				OFFSET -4.081825 -39.591045 13.023800
				CHANNELS 3 Xrotation Yrotation Zrotation
				JOINT RightFoot
				{
					OFFSET 4.081824 -37.707954 -15.979600
					CHANNELS 3 Xrotation Yrotation Zrotation
					JOINT RightToeBase
					{
						OFFSET -5.346400 -15.068900 20.645000
						CHANNELS 3 Xrotation Yrotation Zrotation
						JOINT RightToe_End
						{
							OFFSET -2.754700 0.931300 11.300900
							CHANNELS 3 Xrotation Yrotation Zrotation
							End Site
							{
								OFFSET 0 0 0
							}
						}
					}
				}
			}
		}
	}
	JOINT Spine_virtual
	{
		OFFSET 0.000000 0.000000 0.000000
		CHANNELS 3 Xrotation Yrotation Zrotation
		JOINT Spine
		{
			OFFSET -0.279200 12.230698 -2.892100
			CHANNELS 3 Xrotation Yrotation Zrotation
			JOINT Spine1
			{
				OFFSET -0.232667 10.192268 -1.242267
				CHANNELS 3 Xrotation Yrotation Zrotation
				JOINT Spine1_split
				{
					OFFSET -0.232667 10.192268 -1.242267
					CHANNELS 3 Xrotation Yrotation Zrotation
					JOINT Spine2
					{
						OFFSET -0.232667 10.192268 -1.242267
						CHANNELS 3 Xrotation Yrotation Zrotation
						JOINT Neck_virtual
						{
							OFFSET 0.000000 0.000000 0.000000
							CHANNELS 3 Xrotation Yrotation Zrotation
							JOINT Neck
							{
								OFFSET -0.418800 17.814194 8.416900
								CHANNELS 3 Xrotation Yrotation Zrotation
								JOINT Head
								{
									OFFSET 0.000000 7.031097 3.806800
									CHANNELS 3 Xrotation Yrotation Zrotation
									JOINT HeadTop_End
									{
										OFFSET 0.000000 24.646606 12.978600
										CHANNELS 3 Xrotation Yrotation Zrotation
										End Site
										{
											OFFSET 0 0 0
										}
									}
								}
							}
						}
						JOINT LeftShoulder_virtual
						{
							OFFSET 0.000000 0.000000 0.000000
							CHANNELS 3 Xrotation Yrotation Zrotation
							JOINT LeftShoulder
							{
								OFFSET 8.476499 7.247704 -3.868750
								CHANNELS 3 Xrotation Yrotation Zrotation
								JOINT LeftShoulder_split
								{
									OFFSET 8.476499 7.247704 -3.868750
									CHANNELS 3 Xrotation Yrotation Zrotation
									JOINT LeftArm
									{
										OFFSET 9.308998 -2.777710 0.208600
										CHANNELS 3 Xrotation Yrotation Zrotation
										JOINT LeftForeArm
										{
											OFFSET 29.972298 0.000000 0.000000
											CHANNELS 3 Xrotation Yrotation Zrotation
											JOINT LeftHand
											{
												OFFSET 26.026505 0.000000 0.000000
												CHANNELS 3 Xrotation Yrotation Zrotation
												End Site
												{
													OFFSET 0 0 0
												}
											}
										}
									}
								}
							}
						}
						JOINT RightShoulder_virtual
						{
							OFFSET 0.000000 0.000000 0.000000
							CHANNELS 3 Xrotation Yrotation Zrotation
							JOINT RightShoulder
							{
								OFFSET -7.570500 7.247704 -3.868750
								CHANNELS 3 Xrotation Yrotation Zrotation
								JOINT RightShoulder_split
								{
									OFFSET -7.570500 7.247704 -3.868750
									CHANNELS 3 Xrotation Yrotation Zrotation
									JOINT RightArm
									{
										OFFSET -9.308998 -2.777710 0.208500
										CHANNELS 3 Xrotation Yrotation Zrotation
										JOINT RightForeArm
										{
											OFFSET -29.972300 0.000000 0.000000
											CHANNELS 3 Xrotation Yrotation Zrotation
											JOINT RightHand
											{
												OFFSET -26.026505 0.000000 0.000000
												CHANNELS 3 Xrotation Yrotation Zrotation
												End Site
												{
													OFFSET 0 0 0
												}
											}
										}
									}
								}
							}
						}
					}
				}
			}
		}
	}
}
MOTION
Frames: 7
Frame Time: 0.03333333
4.226933 95.649170 -10.982452 0.000000 0.000000 0.000000 -2.848258 19.150500 0.589643 -8.301887 17.602625 9.058743 9.994542 -4.459118 2.106961 -0.986954 5.011620 -13.895964 0.393398 -3.754504 0.357660 0.000000 0.000000 0.000000 -1.976094 19.605022 0.525294 -3.649257 4.833500 3.188768 8.290286 3.220949 -0.449435 -5.797051 -6.111923 6.643977 7.591035 0.834510 -12.087769 0.000000 0.000000 0.000000 -3.100146 24.344990 0.224506 2.352940 -3.230056 0.719018 3.518850 -1.448649 1.024272 0.188964 -0.529195 0.043410 0.000000 0.000000 0.000000 1.728966 0.969810 0.988074 -9.527181 6.354282 8.854225 6.846986 -23.059670 -6.484217 0.000000 0.000000 0.000000 1.120237 -0.811964 0.817043 1.318873 -1.521396 -4.090999 -0.087337 -2.385720 -2.124681 4.580495 12.368406 -81.329849 13.392582 -25.716794 4.975578 0.000000 0.000000 0.000000 1.951019 -0.520808 1.246058 2.499620 -3.701523 8.321032 -4.261251 1.259487 -1.540273 3.471519 18.458192 72.224169 1.284722 16.285789 2.707849 0.000000 0.000000 0.000000 
4.521495 95.652313 -11.061592 0.000000 0.000000 0.000000 -2.780071 18.744028 0.522456 -8.143529 17.484239 8.786628 9.812362 -4.218010 2.304440 -1.568333 5.132119 -13.312673 0.581628 -3.774533 0.249444 0.000000 0.000000 0.000000 -2.030330 19.375385 0.471722 -3.602276 4.448937 3.103016 7.789217 3.021996 -0.343871 -6.054560 -6.007934 6.006544 8.596430 0.857654 -12.040699 0.000000 0.000000 0.000000 -2.861706 24.115595 0.041491 2.193006 -3.169672 0.812005 3.564743 -1.455374 0.992288 0.230146 -0.562945 0.046395 0.000000 0.000000 0.000000 1.834401 0.966523 0.984574 -9.480744 6.420494 8.906564 6.856911 -22.807018 -6.532584 0.000000 0.000000 0.000000 1.167261 -0.823030 0.796463 1.336621 -1.514616 -4.046257 0.070587 -2.749929 -1.906719 4.558915 12.318295 -81.401628 13.414924 -25.802027 5.018909 0.000000 0.000000 0.000000 1.960138 -0.526125 1.262467 2.417026 -4.001972 8.062974 -4.373790 1.117886 -1.529669 2.924677 18.911810 72.364973 1.165497 17.229693 2.594027 0.000000 0.000000 0.000000 
4.955532 95.656082 -11.070137 0.000000 0.000000 0.000000 -2.750961 18.406950 0.433659 -7.908001 17.600583 8.539943 9.953309 -4.105626 2.446689 -2.196808 5.019427 -13.054609 1.023628 -3.812061 0.410498 0.000000 0.000000 0.000000 -2.156188 18.843081 0.405036 -3.670777 3.955524 2.786358 7.286927 3.065672 -0.102850 -5.696411 -5.722784 5.975754 8.181185 1.071984 -11.845205 0.000000 0.000000 0.000000 -2.761349 23.903463 -0.138150 2.083000 -3.021744 0.964669 3.609881 -1.466456 0.932318 0.259355 -0.580234 0.036629 0.000000 0.000000 0.000000 1.984604 0.955568 0.939008 -9.624951 6.455070 9.053290 6.939205 -22.217115 -6.387648 0.000000 0.000000 0.000000 1.224103 -0.844579 0.734504 1.329376 -1.441751 -3.895184 0.219061 -3.105852 -1.681614 4.480056 12.442115 -81.606178 13.419375 -25.885568 5.079221 0.000000 0.000000 0.000000 1.999271 -0.551177 1.240801 2.274855 -4.429545 7.675751 -4.365280 0.907627 -1.422064 2.194180 19.577689 72.619377 1.087433 18.066433 2.120151 0.000000 0.000000 0.000000 
5.503690 95.672546 -10.990810 0.000000 0.000000 0.000000 -2.791897 18.179855 0.379304 -7.635181 18.050807 8.288007 10.332825 -4.028506 2.489707 -2.846322 4.730909 -12.983928 1.643647 -3.861588 0.873147 0.000000 0.000000 0.000000 -2.230850 18.221261 0.345473 -3.589193 3.572088 2.324229 6.800296 3.223805 0.241507 -5.256193 -5.423224 6.204522 6.894339 1.390059 -11.528498 0.000000 0.000000 0.000000 -2.792465 23.729206 -0.257453 2.039456 -2.836614 1.115500 3.657018 -1.475880 0.868545 0.263089 -0.582376 0.038553 0.000000 0.000000 0.000000 2.118523 0.933292 0.881482 -9.874239 6.457048 9.259308 7.214859 -21.413027 -6.020918 0.000000 0.000000 0.000000 1.268261 -0.872734 0.650785 1.306161 -1.303763 -3.700737 0.352598 -3.413438 -1.483236 4.431160 12.616003 -81.962420 13.394982 -25.926609 5.129254 0.000000 0.000000 0.000000 2.070454 -0.585919 1.202032 2.083541 -4.876524 7.224093 -4.278767 0.812185 -1.314048 1.439557 20.173138 72.993207 1.048822 18.667358 1.353931 0.000000 0.000000 0.000000 
6.128899 95.683945 -10.793072 0.000000 0.000000 0.000000 -2.865222 18.076806 0.381641 -7.394733 18.695893 8.007278 10.757649 -3.936744 2.460748 -3.525704 4.378637 -12.911642 2.371738 -3.883900 1.550383 0.000000 0.000000 0.000000 -2.181061 17.632683 0.263980 -3.222479 3.270884 1.807265 6.235498 3.206635 0.625846 -5.225718 -5.362932 6.247868 6.220077 1.662344 -11.212742 0.000000 0.000000 0.000000 -2.868378 23.615779 -0.317981 2.077063 -2.665012 1.203951 3.707885 -1.482316 0.829749 0.253856 -0.573642 0.035336 0.000000 0.000000 0.000000 2.184428 0.901189 0.846545 -10.205191 6.451129 9.523456 7.762471 -20.440724 -5.479885 0.000000 0.000000 0.000000 1.286158 -0.908460 0.583633 1.264825 -1.149601 -3.496239 0.526472 -3.600179 -1.295216 4.467612 12.658233 -82.436709 13.352296 -25.955812 5.141833 0.000000 0.000000 0.000000 2.154428 -0.626771 1.169507 1.871003 -5.206371 6.775529 -4.172037 0.871378 -1.194378 0.747086 20.492825 73.449525 1.013948 19.108544 0.423629 0.000000 0.000000 0.000000 
6.825730 95.699333 -10.508923 0.000000 0.000000 0.000000 -2.875737 18.037404 0.415012 -7.052002 19.300781 7.605038 11.004386 -3.710084 2.437384 -4.318718 4.116392 -12.431720 3.082251 -3.869045 2.282866 0.000000 0.000000 0.000000 -2.070622 17.221618 0.180946 -2.597594 2.980681 1.198457 5.646962 2.950488 1.078996 -5.638310 -5.565228 6.141577 6.575440 1.879502 -11.129186 0.000000 0.000000 0.000000 -2.861504 23.604821 -0.347327 2.221798 -2.541973 1.202043 3.751406 -1.476147 0.833502 0.225444 -0.509574 0.021844 0.000000 0.000000 0.000000 2.164091 0.869295 0.853216 -10.561119 6.474329 9.849502 8.635157 -19.294864 -4.779395 0.000000 0.000000 0.000000 1.275090 -0.941381 0.567713 1.209516 -1.037730 -3.335000 0.757305 -3.633406 -1.121445 4.608247 12.463558 -82.939650 13.327290 -26.068896 5.117134 0.000000 0.000000 0.000000 2.228805 -0.656880 1.169940 1.654131 -5.298676 6.360359 -4.034533 1.014877 -1.046483 0.152858 20.403319 73.953853 0.950784 19.579137 -0.522865 0.000000 0.000000 0.000000 
7.597098 95.753616 -10.190639 0.000000 0.000000 0.000000 -2.798977 17.850001 0.434676 -6.550729 19.521434 7.072933 11.079083 -3.418215 2.501259 -5.043269 4.022574 -11.600315 3.721289 -3.795585 2.897888 0.000000 0.000000 0.000000 -1.897744 17.086698 0.129892 -1.886151 2.648398 0.349566 5.162253 2.717340 1.595354 -6.157363 -5.812094 6.607515 6.968673 2.138387 -11.527255 0.000000 0.000000 0.000000 -2.755392 23.655255 -0.334250 2.478254 -2.465674 1.078806 3.759966 -1.452764 0.889132 0.199370 -0.407981 0.022291 0.000000 0.000000 0.000000 2.060891 0.851561 0.912000 -10.896145 6.531899 10.270318 9.793616 -18.024046 -3.945355 0.000000 0.000000 0.000000 1.234644 -0.957424 0.626804 1.147169 -0.992812 -3.199668 1.021448 -3.440200 -1.014709 4.806645 12.012452 -83.399417 13.337933 -26.292801 5.048963 0.000000 0.000000 0.000000 2.262474 -0.664588 1.210475 1.453945 -5.135351 5.998163 -3.841924 1.155140 -0.854798 -0.365335 19.873807 74.448311 0.857896 20.219079 -1.357077 0.000000 0.000000 0.000000 
